<mxfile host="app.diagrams.net" modified="2024-05-25T13:58:40.771Z" agent="Mozilla/5.0 (Windows NT 10.0; Win64; x64) AppleWebKit/537.36 (KHTML, like Gecko) Chrome/122.0.0.0 Safari/537.36 Edg/122.0.0.0" etag="loB0kU4nmiUWW-h9yq0V" version="24.4.8" type="github">
  <diagram name="第 1 页" id="ra8dA1R6cyDe-KzPPCIt">
    <mxGraphModel dx="1379" dy="774" grid="1" gridSize="10" guides="1" tooltips="1" connect="1" arrows="1" fold="1" page="1" pageScale="1" pageWidth="827" pageHeight="1169" math="0" shadow="0">
      <root>
        <mxCell id="0" />
        <mxCell id="1" parent="0" />
      </root>
    </mxGraphModel>
  </diagram>
</mxfile>
